<?xml version="1.0" encoding="UTF-8"?>
<svg width="136px" height="35px" viewBox="0 0 136 35" version="1.1" xmlns="http://www.w3.org/2000/svg" xmlns:xlink="http://www.w3.org/1999/xlink">
    <!-- Generator: Sketch 42 (36781) - http://www.bohemiancoding.com/sketch -->
    <title>Group 2</title>
    <desc>Created with Sketch.</desc>
    <defs></defs>
    <g id="Page-1" stroke="none" stroke-width="1" fill="none" fill-rule="evenodd">
        <g id="Desktop-Landscape" transform="translate(-152.000000, -79.000000)" fill="#FFFFFF">
            <g id="Group-2" transform="translate(152.000000, 79.000000)">
                <g id="Group" transform="translate(0.000000, 1.014493)">
                    <rect id="Rectangle-path" x="0.153423707" y="0.295298103" width="30.5381766" height="9.15793242"></rect>
                    <rect id="Rectangle-path" x="0.153423707" y="12.3151613" width="30.5381766" height="9.1554716"></rect>
                    <rect id="Rectangle-path" x="0.153423707" y="24.3325637" width="30.5381766" height="9.15793242"></rect>
                </g>
                <path d="M47.2750884,17.582378 C47.2750884,15.8842726 47.0567968,14.681466 46.6202068,13.9739221 C46.1836169,13.2663782 45.4343455,12.9126116 44.3723701,12.9126116 C44.0419777,12.9126116 43.6997907,12.9302999 43.3457989,12.9656771 C42.9918071,13.0010543 42.6496202,13.0423271 42.3192278,13.0894967 L42.3192278,27.452566 L37.0447761,27.452566 L37.0447761,9.48104083 C37.4931658,9.36311684 38.0182457,9.23929852 38.6200318,9.10958214 C39.2218179,8.97986576 39.8589936,8.86194354 40.5315781,8.75581196 C41.2041625,8.64968037 41.8944362,8.56713482 42.6024198,8.50817283 C43.3104035,8.44921084 44.0065769,8.41973029 44.6909611,8.41973029 C46.03613,8.41973029 47.1275884,8.5907175 47.965369,8.93269705 C48.8031497,9.2746766 49.4934233,9.68150824 50.0362108,10.1532042 C50.7913933,9.61075385 51.6586603,9.18623388 52.6380376,8.87963152 C53.617415,8.57302916 54.5200806,8.41973029 55.3460615,8.41973029 C56.8328271,8.41973029 58.0540805,8.62609416 59.0098584,9.0388281 C59.9656363,9.45156204 60.7267073,10.035277 61.2930942,10.7899905 C61.8594811,11.544704 62.2488663,12.4409128 62.4612614,13.4786439 C62.6736565,14.5163749 62.7798524,15.6720126 62.7798524,16.9455916 L62.7798524,27.452566 L57.5054007,27.452566 L57.5054007,17.582378 C57.5054007,15.8842726 57.2871091,14.681466 56.8505192,13.9739221 C56.4139293,13.2663782 55.6646578,12.9126116 54.6026824,12.9126116 C54.3194889,12.9126116 53.924204,12.9833649 53.4168157,13.1248737 C52.9094275,13.2663825 52.4905434,13.4432658 52.1601511,13.655529 C52.3253472,14.1979793 52.4315432,14.769902 52.4787421,15.3713143 C52.525941,15.9727266 52.5495401,16.6154027 52.5495401,17.2993618 L52.5495401,27.452566 L47.2750884,27.452566 L47.2750884,17.582378 Z M71.267747,17.5470009 C71.267747,20.4951005 72.4595016,21.9691282 74.8430465,21.9691282 C75.3858339,21.9691282 75.8932146,21.8983749 76.3652037,21.7568661 C76.8371928,21.6153573 77.2383775,21.4502662 77.5687698,21.2615878 L77.5687698,12.8418575 C77.3091758,12.7946879 77.0023875,12.7534152 76.6483957,12.718038 C76.2944039,12.6826608 75.8814196,12.6649724 75.4094306,12.6649724 C74.0170628,12.6649724 72.9787023,13.1248691 72.2943182,14.0446761 C71.609934,14.9644832 71.267747,16.1319131 71.267747,17.5470009 Z M82.8432215,25.1176828 C82.8432215,28.1601215 82.070351,30.4183319 80.5245867,31.8923817 C78.9788225,33.3664315 76.5894135,34.1034454 73.3562883,34.1034454 C72.2235145,34.1034454 71.0907577,34.0032115 69.9579839,33.8027407 C68.8252101,33.6022699 67.7750501,33.336945 66.8074725,33.0067578 L67.7278466,28.5846306 C68.5538275,28.9148177 69.4210944,29.1742466 70.3296734,29.3629249 C71.2382524,29.5516033 72.270713,29.6459411 73.4270863,29.6459411 C74.9374514,29.6459411 76.0053107,29.3157589 76.6306962,28.6553846 C77.2560818,27.9950103 77.5687698,27.1459703 77.5687698,26.1082393 L77.5687698,25.4360759 C77.0023829,25.6955087 76.4183052,25.8900804 75.8165191,26.0197967 C75.214733,26.1495131 74.559858,26.2143703 73.8518744,26.2143703 C71.2795338,26.2143703 69.309009,25.4537721 67.9402406,23.9325527 C66.5714723,22.4113333 65.8870983,20.2828373 65.8870983,17.5470009 C65.8870983,16.1790827 66.0994902,14.9350034 66.5242804,13.8147255 C66.9490706,12.6944477 67.568547,11.7333816 68.3827282,10.9314986 C69.1969093,10.1296155 70.1939713,9.51052386 71.373944,9.07420512 C72.5539168,8.63788638 73.8872659,8.41973029 75.3740316,8.41973029 C76.0112168,8.41973029 76.6660919,8.44921084 77.3386763,8.50817283 C78.0112608,8.56713482 78.6779353,8.64378426 79.3387201,8.73812345 C79.9995048,8.83246263 80.6307807,8.94448874 81.2325668,9.07420512 C81.8343529,9.2039215 82.3712324,9.33953205 82.8432215,9.48104083 L82.8432215,25.1176828 Z M86.8354425,4.20986514 L92.1098942,3.36081671 L92.1098942,8.8442545 L98.446316,8.8442545 L98.446316,13.2310047 L92.1098942,13.2310047 L92.1098942,19.7757531 C92.1098942,20.8842385 92.3045868,21.7686551 92.6939778,22.4290294 C93.0833688,23.0894037 93.8680389,23.4195859 95.0480116,23.4195859 C95.6143985,23.4195859 96.1984762,23.3665209 96.8002623,23.2603893 C97.4020484,23.1542578 97.9507275,23.006855 98.446316,22.8181766 L99.1896951,26.9219107 C98.5525099,27.1813435 97.8445369,27.4053957 97.0657549,27.594074 C96.2869729,27.7827524 95.3312093,27.8770902 94.1984355,27.8770902 C92.7588688,27.8770902 91.5671142,27.6825185 90.623136,27.2933694 C89.6791579,26.9042202 88.9239866,26.3617781 88.3575997,25.6660266 C87.7912128,24.9702751 87.3959279,24.1271312 87.1717331,23.1365698 C86.9475383,22.1460083 86.8354425,21.0493317 86.8354425,19.8465071 L86.8354425,4.20986514 Z M107.288201,23.667225 C108.255778,23.667225 108.940152,23.5728873 109.341343,23.3842089 C109.742534,23.1955305 109.943126,22.8299717 109.943126,22.2875213 C109.943126,21.862995 109.683536,21.49154 109.164348,21.1731453 C108.64516,20.8547505 107.85459,20.4950878 106.792615,20.0941462 C105.966634,19.7875439 105.217362,19.4691539 104.544778,19.1389667 C103.872193,18.8087796 103.299915,18.4137402 102.827926,17.9538366 C102.355937,17.4939331 101.990151,16.9455948 101.730557,16.3088053 C101.470963,15.6720158 101.341168,14.9055214 101.341168,14.0092991 C101.341168,12.2640242 101.990143,10.8843343 103.288113,9.87018802 C104.586083,8.85604177 106.367815,8.34897625 108.633363,8.34897625 C109.766137,8.34897625 110.851695,8.44921013 111.890071,8.6496809 C112.928447,8.85015167 113.754416,9.06830777 114.368002,9.30415574 L113.447627,13.4078898 C112.834042,13.1956267 112.167367,13.0069511 111.447584,12.8418575 C110.7278,12.676764 109.919531,12.5942184 109.022752,12.5942184 C107.37079,12.5942184 106.544822,13.054115 106.544822,13.9739221 C106.544822,14.1861853 106.58022,14.3748608 106.651019,14.5399544 C106.721817,14.705048 106.863412,14.864243 107.075807,15.0175441 C107.288202,15.1708453 107.577291,15.3359364 107.943082,15.5128224 C108.308874,15.6897084 108.774956,15.88428 109.341343,16.0965432 C110.497716,16.5210695 111.45348,16.9396934 112.208662,17.3524273 C112.963845,17.7651613 113.559722,18.2132657 113.996312,18.696754 C114.432902,19.1802423 114.73969,19.7167884 114.916686,20.3064083 C115.093682,20.8960283 115.182179,21.5799771 115.182179,22.3582754 C115.182179,24.1978895 114.491905,25.5893716 113.111337,26.5327635 C111.730769,27.4761554 109.777943,27.9478442 107.252802,27.9478442 C105.60084,27.9478442 104.226192,27.8063376 103.128818,27.52332 C102.031443,27.2403025 101.270372,27.004458 100.845582,26.8157797 L101.730557,22.5351605 C102.627336,22.8889324 103.547701,23.1660496 104.491679,23.3665204 C105.435658,23.5669912 106.367822,23.667225 107.288201,23.667225 Z M123.599275,15.5658879 C124.118463,14.9998528 124.655343,14.4102417 125.20993,13.797037 C125.764517,13.1838323 126.301397,12.5765329 126.820585,11.9751206 C127.339773,11.3737083 127.829454,10.8017855 128.289643,10.2593352 C128.749833,9.7168849 129.145118,9.24519604 129.47551,8.8442545 L135.741134,8.8442545 C134.490363,10.2829271 133.269109,11.6567209 132.077337,12.9656771 C130.885564,14.2746333 129.581714,15.6248427 128.165747,17.0163457 C128.873731,17.6531352 129.605303,18.4137335 130.360485,19.2981633 C131.115668,20.1825932 131.84724,21.0964904 132.555223,22.0398822 C133.263207,22.9832741 133.912182,23.9266518 134.502169,24.8700437 C135.092155,25.8134355 135.587736,26.6742677 135.988927,27.452566 L129.935697,27.452566 C129.558106,26.8393613 129.127422,26.1613085 128.643633,25.4183874 C128.159845,24.6754663 127.646564,23.9325564 127.103777,23.1896353 C126.560989,22.4467142 125.988711,21.7332848 125.386925,21.0493257 C124.785139,20.3653666 124.189262,19.7875478 123.599275,19.3158518 L123.599275,27.452566 L118.324824,27.452566 L118.324824,0.849048432 L123.599275,1.42108547e-14 L123.599275,15.5658879 Z" id="mgtsk.io"></path>
            </g>
        </g>
    </g>
</svg>