<svg id="mp_logo" xmlns="http://www.w3.org/2000/svg" viewBox="0 0 400 53"><g class="literal" fill="currentColor"><path d="M68.3 0h16l11.9 35.1L107.8 0h15.6v51.1h-10.5V14.8l-12.6 36.3h-8.7L79 15.1V51H68.3V0zM149.7 52.2c-11.4 0-18.9-7.7-18.9-19.4 0-11.5 7.8-19.8 18.6-19.8 11.2 0 18.3 8.2 18.3 21.2v1h-26.5c.1 6.4 3.2 9.8 8.7 9.8 3.7 0 6-1.6 7.5-5.4h9.8c-2.4 8-9.1 12.6-17.5 12.6zm-.4-31.8c-4.5 0-7.7 3.2-8.3 8.3h16.2c-.3-4.5-2.8-8.3-7.9-8.3zM183.7 21.9v29.2h-10.1v-37h28v7.8h-17.9zM228.2 51.1c-.5-1.4-.6-1.9-.7-3.6-3.2 3.2-7.5 4.7-12 4.7-8.2 0-13.2-4.2-13.2-11.2 0-9.7 8.8-10.8 16.1-11.8 6.6-.9 9-1.4 9-4.4 0-3.4-2.2-5-6.7-5-4.7 0-6.6 1.4-7.3 5.7h-9.5c.6-8.3 6.5-12.5 17.1-12.5 7.5 0 16.1 1.7 16.1 12.1v16c0 3.4-.1 6.9 1.3 10h-10.2zm-8-16.1c-3.5.6-7.5 1-7.5 5.5 0 3.1 2.1 5 5.6 5 5.3 0 9-2.9 9-8.3V33c-2.3 1.4-4.5 1.6-7.1 2zM264.4 21.9v29.2h-10.1V21.9h-12.2v-7.8h34.5v7.8h-12.2zM303.9 51.1c-.5-1.4-.6-1.9-.7-3.6-3.2 3.2-7.5 4.7-12 4.7C283 52.2 278 48 278 41c0-9.7 8.8-10.8 16.1-11.8 6.6-.9 9-1.4 9-4.4 0-3.4-2.2-5-6.7-5-4.7 0-6.6 1.4-7.3 5.7h-9.5c.6-8.3 6.5-12.5 17.1-12.5 7.5 0 16.1 1.7 16.1 12.1v16c0 3.4-.1 6.9 1.3 10h-10.2zM296 35c-3.5.6-7.5 1-7.5 5.5 0 3.1 2.1 5 5.6 5 5.3 0 9-2.9 9-8.3V33c-2.3 1.4-4.5 1.6-7.1 2zM338.6 52c-11.4 0-18.9-7.6-18.9-19.2 0-12 7.5-19.9 19-19.9 9.9 0 16.5 5.4 17.4 14h-10c-.7-4.1-3.4-6.4-7.3-6.4-5.5 0-8.8 4.4-8.8 12.1 0 7.4 3.2 11.6 8.6 11.6 4.4 0 7.1-2.6 7.9-7.5h9.8C355 46.4 348.4 52 338.6 52zM387.7 51.1L377 35.2l-4.5 4.6v11.3h-10v-37h10v14.6L386 14.1h12l-14.3 14.3L400 51.1h-12.3z"/></g><g class="symbol" fill="#0BBBEF"><path d="M0 .3h46.4v14.1H0zM0 18.8h46.4v14.1H0zM0 37.2h46.4v14.1H0z"/></g></svg>